<svg width="99" height="99" viewBox="0 0 99 99" fill="none" xmlns="http://www.w3.org/2000/svg">
<g clip-path="url(#clip0_108_661)">
<path d="M47.8304 60.9721C56.6924 63.1439 70.0225 68.4297 86.2509 81.1381V10.6222C70.0225 23.3267 56.6924 28.6144 47.8304 30.7882V60.9721ZM34.1857 92.6576L34.0749 92.5275L33.9429 92.3118C32.7132 90.2177 31.1358 85.8605 30.6113 76.9771V76.9265V66.8212H21.6599H16.5877V98.6019H30.8075C30.8522 98.6019 30.9026 98.5883 30.957 98.5864L31.1319 98.5669L31.3844 98.5825C31.4427 98.5825 31.4951 98.5922 31.5379 98.5999C32.4825 98.5762 33.3807 98.1851 34.0416 97.5097C34.7025 96.8343 35.0741 95.9278 35.0773 94.9828C35.0711 94.364 34.9037 93.7573 34.5916 93.2229C34.4745 93.022 34.3386 92.8327 34.1857 92.6576ZM-0.00390625 37.6824V54.0934C0.00480172 56.2698 0.873822 58.3545 2.41354 59.8928C3.95325 61.431 6.03876 62.298 8.21521 62.3047H43.308V29.475H8.21912C6.04303 29.4806 3.95751 30.3467 2.41769 31.8844C0.877862 33.422 0.00871996 35.5064 6.42892e-06 37.6824H-0.00390625ZM97.0651 0.398371H92.7041C92.1939 0.406382 91.707 0.612595 91.3462 0.973357C90.9855 1.33412 90.7792 1.8211 90.7712 2.33123V89.4446C90.7758 89.9551 90.9812 90.4432 91.3429 90.8035C91.7046 91.1637 92.1935 91.3671 92.7041 91.3697H97.0651C97.5763 91.3686 98.0661 91.165 98.4274 90.8034C98.7886 90.4418 98.9917 89.9518 98.9922 89.4407V2.31763C98.9897 1.80746 98.7866 1.31877 98.4268 0.957114C98.0669 0.595454 97.5792 0.389861 97.0691 0.384766L97.0651 0.398371Z" fill="#4FCD90"/>
</g>
<defs>
<clipPath id="clip0_108_661">
<rect width="99" height="99" fill="white"/>
</clipPath>
</defs>
</svg>
