<svg width="99" height="99" viewBox="0 0 99 99" fill="none" xmlns="http://www.w3.org/2000/svg">
<g clip-path="url(#clip0_108_663)">
<path d="M21.5207 59.8633H8.35993C6.61956 59.8633 5.20898 61.6153 5.20898 63.7768V104.732C5.20898 106.894 6.61956 108.646 8.35993 108.646H21.5207C23.2611 108.646 24.6717 106.894 24.6717 104.732V63.7768C24.6717 61.6153 23.2611 59.8633 21.5207 59.8633ZM18.3698 100.818H11.5109V67.69H18.3698V100.818Z" fill="#4FCD90"/>
<path d="M46.2977 38.1904H33.1373C31.3969 38.1904 29.9863 39.9424 29.9863 42.104V104.732C29.9863 106.894 31.3969 108.646 33.1373 108.646H46.2981C48.0385 108.646 49.449 106.894 49.449 104.732V42.104C49.4487 39.9428 48.0381 38.1904 46.2977 38.1904ZM43.1468 100.819H36.2879V46.0176H43.1468V100.819Z" fill="#4FCD90"/>
<path d="M71.0735 63.0962H57.9127C56.1723 63.0962 54.7617 64.8482 54.7617 67.0098V104.732C54.7617 106.893 56.1723 108.645 57.9127 108.645H71.0735C72.8139 108.645 74.2244 106.893 74.2244 104.732V67.0098C74.2244 64.8482 72.8139 63.0962 71.0735 63.0962ZM67.9225 100.818H61.0636V70.9233H67.9225V100.818Z" fill="#4FCD90"/>
<path d="M95.8492 39.6348H82.6881C80.9477 39.6348 79.5371 41.3867 79.5371 43.5483V104.732C79.5371 106.894 80.9477 108.646 82.6881 108.646H95.8489C97.5893 108.646 98.9998 106.894 98.9998 104.732V43.5483C99.0002 41.3867 97.5893 39.6348 95.8492 39.6348ZM92.6983 100.819H85.839V47.4619H92.6979V100.819H92.6983Z" fill="#4FCD90"/>
<path d="M62.6402 46.7138C63.7871 47.7491 65.3496 47.7052 66.4581 46.6068L90.0093 23.2637L89.905 27.1107C89.8465 29.271 91.2088 31.0813 92.9481 31.1539C92.9845 31.1552 93.0202 31.1561 93.0563 31.1561C94.7476 31.1561 96.1463 29.4893 96.2037 27.3743L96.5752 13.6916C96.6042 12.6084 96.2709 11.5587 95.6541 10.7925C95.0372 10.0259 94.1892 9.61016 93.3199 9.64842L82.3035 10.1098C80.5642 10.1824 79.2019 11.9931 79.2604 14.1529C79.3188 16.3128 80.7707 18.0013 82.5157 17.9326L85.4079 17.8117L64.404 38.6301L40.5198 17.0685C39.4737 16.1241 38.0691 16.0693 36.9778 16.9307L1.46205 44.9475C-0.00698841 46.1063 -0.441469 48.5249 0.491562 50.3491C1.09199 51.5231 2.11185 52.165 3.15411 52.165C3.73179 52.165 4.31681 51.9675 4.84057 51.5544L38.5473 24.9639L62.6402 46.7138Z" fill="#4FCD90"/>
</g>
<defs>
<clipPath id="clip0_108_663">
<rect width="99" height="99" fill="white"/>
</clipPath>
</defs>
</svg>
