<svg width="99" height="99" viewBox="0 0 99 99" fill="none" xmlns="http://www.w3.org/2000/svg">
<g clip-path="url(#clip0_108_642)">
<path d="M95.8183 62.5696C94.5731 62.3318 92.5985 61.9354 90.0987 61.4337C80.7018 59.5471 64.9745 56.3896 61.5627 56.3896C61.5121 56.3896 61.4648 56.3904 61.4194 56.3916C55.3418 56.5714 43.279 60.4494 36.0717 62.7662C33.5131 63.5886 31.4926 64.2384 30.6344 64.433C29.0392 64.7949 27.9022 66.2646 27.8694 68.0066C27.8359 69.7918 29.0431 72.0311 32.5319 72.9618C33.9433 73.3385 35.6328 73.5294 37.5532 73.5294C41.5479 73.5294 45.8548 72.7218 48.9997 72.1323C50.8071 71.7933 52.2346 71.5257 52.9828 71.5257C53.2129 71.5257 53.3165 71.5518 53.3582 71.5681C53.3074 72.786 51.0244 74.1412 47.2293 75.2024C43.5018 76.2448 38.9018 76.8672 34.9241 76.8672C33.3757 76.8672 31.9825 76.7717 30.7829 76.5838C22.6638 75.3104 13.5876 72.2161 6.50359 68.3066C5.68438 67.8544 4.85086 67.6252 4.02647 67.6252C2.36264 67.6252 0.945235 68.5791 0.327065 70.1145C-0.547155 72.2854 0.355679 74.9505 2.74178 77.2436C6.53664 80.8895 25.696 92.1096 32.2067 93.6227C32.595 93.713 33.1562 93.7569 33.9226 93.7569C42.3604 93.7569 71.4411 88.3872 74.9498 87.5905C75.2083 87.532 75.6217 87.5022 76.1782 87.5022C80.3046 87.5022 91.3464 89.1699 94.9015 89.7775C95.7142 89.9164 96.3102 89.981 96.7769 89.981C97.6378 89.981 98.1322 89.7494 98.3801 89.2296C98.6011 88.7659 98.6011 88.1166 98.6008 87.2177V87.124C98.6008 83.0908 98.7054 79.2797 98.8068 75.5939C98.9062 71.9766 99 68.5601 99 65.0105C99 63.1772 97.161 62.8262 95.8183 62.5696Z" fill="#4FCD90"/>
<path d="M64.8013 40.8515C56.7873 49.3744 40.4623 48.7683 30.4505 50.4462C31.0916 49.6926 31.6713 48.8413 32.2961 47.9165C34.7611 44.267 38.1374 39.2686 48.4985 37.3265C50.8118 36.8928 52.3358 34.6661 51.9022 32.3525C51.4685 30.0389 49.24 28.5157 46.9284 28.9491C33.0675 31.5471 27.9711 39.0922 25.233 43.1458C24.7505 43.8602 24.0924 44.8351 23.8013 45.099C23.7113 45.1634 23.6276 45.2332 23.5443 45.303C22.9355 37.3563 25.5537 24.056 40.9835 17.7426C62.7505 8.83612 67.5182 6.47297 69.6688 5.28818C71.819 4.10339 78.4637 26.321 64.8013 40.8515Z" fill="#4FCD90"/>
</g>
<defs>
<clipPath id="clip0_108_642">
<rect width="99" height="99" fill="white"/>
</clipPath>
</defs>
</svg>
